# xmcd
#
# Track frame offsets: 
#        151
#        4107
#        25277
#        34813
#        46766
#        59171
#        90060
#        105624
#        117638
#        132427
#        141338
#        150333
#        153252
#        171535
#        185649
#        204680
#        218922
#        232117
#        244119
#        254801
#        268398
#        278732
#        319745
#        333377
#        350254
#
# Disc length: 4753 seconds
#
# Revision: 0
# Processed by: cddbd v1.5.2PL0 Copyright (c) Steve Scherf et al.
# Submitted via: ExactAudioCopy v0.99pb5
#
DISCID=7e128f19
DTITLE=Caballe Corelli Bumbry Siepi 2 - Verdi Don Carl
DYEAR=1972
DGENRE=Opera
TTITLE0=26 ,  Nel Posar Sul Mio Capo La Corona
TTITLE1=27 ,  Qui Carlo ! O Ciel !
TTITLE2=28 ,  Sire, Egli E' Tempo Ch'io Viva
TTITLE3=29 ,  O Ciel ! Tu ! Rodrigo !
TTITLE4=30 ,  Introduzione: Atto III
TTITLE5=31 ,  Ella Giammai M'amo
TTITLE6=32 ,  Il Grande Inquisitor !
TTITLE7=33 ,  Nell' Ispano Suol Mai L'eresia Domino'
TTITLE8=34 ,  No, Giammai !
TTITLE9=35 ,  Giustizia, O Sire !
TTITLE10=36 ,  Ben Lo Sapete- Un Di' Promessa
TTITLE11=37 ,  Soccorso Alla Regina !
TTITLE12=38 ,  Ah ! sii maledetto
TTITLE13=39 ,  Pieta', Perdon !
TTITLE14=40 ,  O Don Fatale, O Don Crudel
TTITLE15=41 ,  Son Io, Mio Carlo
TTITLE16=42 ,  Per Me Giunto
TTITLE17=43 ,  Che Parli Tu Di Morte ?
TTITLE18=44 ,  Io Morro' Ma Lieto In Core
TTITLE19=45 ,  Mio Carlo, A Te La Spada Io Rendo
TTITLE20=46 ,  Introduzione: Atto IV
TTITLE21=47 ,  Tu che le vanita'
TTITLE22=48 ,  E' Dessa !
TTITLE23=49 ,  Ma lassu' ci vedremo
TTITLE24=50 ,  Si' per sempre !
EXTD=
EXTT0=
EXTT1=
EXTT2=
EXTT3=
EXTT4=
EXTT5=
EXTT6=
EXTT7=
EXTT8=
EXTT9=
EXTT10=
EXTT11=
EXTT12=
EXTT13=
EXTT14=
EXTT15=
EXTT16=
EXTT17=
EXTT18=
EXTT19=
EXTT20=
EXTT21=
EXTT22=
EXTT23=
EXTT24=
PLAYORDER=
